HIERARCHY
ROOT Hips
{
	OFFSET 0.000000 0.000000 0.000000
	CHANNELS 6 Xposition Yposition Zposition Zrotation Yrotation Xrotation 
	JOINT LHipJoint
	{
		OFFSET 0.000000 0.000000 0.000000
		CHANNELS 3 Zrotation Yrotation Xrotation
		JOINT LeftUpLeg
		{
			OFFSET 1.363060 -1.794630 0.839290
			CHANNELS 3 Zrotation Yrotation Xrotation
			JOINT LeftLeg
			{
				OFFSET 2.448110 -6.726130 0.000000
				CHANNELS 3 Zrotation Yrotation Xrotation
				JOINT LeftFoot
				{
					OFFSET 2.562200 -7.039590 0.000000
					CHANNELS 3 Zrotation Yrotation Xrotation
					JOINT LeftToeBase
					{
						OFFSET 0.157640 -0.433110 2.322550
						CHANNELS 3 Zrotation Yrotation Xrotation
						End Site
						{
							OFFSET 0.000000 0.000000 0.000000
						}
					}
				}
			}
		}
	}
	JOINT RHipJoint
	{
		OFFSET 0.000000 0.000000 0.000000
		CHANNELS 3 Zrotation Yrotation Xrotation
		JOINT RightUpLeg
		{
			OFFSET -1.305520 -1.794630 0.839290
			CHANNELS 3 Zrotation Yrotation Xrotation
			JOINT RightLeg
			{
				OFFSET -2.542530 -6.985550 0.000000
				CHANNELS 3 Zrotation Yrotation Xrotation
				JOINT RightFoot
				{
					OFFSET -2.568260 -7.056230 0.000000
					CHANNELS 3 Zrotation Yrotation Xrotation
					JOINT RightToeBase
					{
						OFFSET -0.164730 -0.452590 2.363150
						CHANNELS 3 Zrotation Yrotation Xrotation
						End Site
						{
							OFFSET 0.000000 0.000000 0.000000
						}
					}
				}
			}
		}
	}
	JOINT LowerBack
	{
		OFFSET 0.000000 0.000000 0.000000
		CHANNELS 3 Zrotation Yrotation Xrotation
		JOINT Spine
		{
			OFFSET 0.028270 2.035590 -0.193380
			CHANNELS 3 Zrotation Yrotation Xrotation
			JOINT Spine1
			{
				OFFSET 0.056720 2.048850 -0.042750
				CHANNELS 3 Zrotation Yrotation Xrotation
				JOINT Neck
				{
					OFFSET 0.000000 0.000000 0.000000
					CHANNELS 3 Zrotation Yrotation Xrotation
					JOINT Neck1
					{
						OFFSET -0.054170 1.746240 0.172020
						CHANNELS 3 Zrotation Yrotation Xrotation
						JOINT Head
						{
							OFFSET 0.104070 1.761360 -0.123970
							CHANNELS 3 Zrotation Yrotation Xrotation
							End Site
							{
								OFFSET 0.000000 0.000000 0.000000
							}
						}
					}
				}
				JOINT LeftShoulder
				{
					OFFSET 0.000000 0.000000 0.000000
					CHANNELS 3 Zrotation Yrotation Xrotation
					JOINT LeftArm
					{
						OFFSET 3.362410 1.200890 -0.311210
						CHANNELS 3 Zrotation Yrotation Xrotation
						JOINT LeftForeArm
						{
							OFFSET 4.983000 -0.000000 -0.000000
							CHANNELS 3 Zrotation Yrotation Xrotation
							JOINT LeftHand
							{
								OFFSET 3.483560 -0.000000 -0.000000
								CHANNELS 3 Zrotation Yrotation Xrotation
								JOINT LeftFingerBase
								{
									OFFSET 0.000000 0.000000 0.000000
									CHANNELS 3 Zrotation Yrotation Xrotation
									JOINT LeftHandIndex1
									{
										OFFSET 0.715260 -0.000000 -0.000000
										CHANNELS 3 Zrotation Yrotation Xrotation
										End Site
										{
											OFFSET 0.000000 0.000000 0.000000
										}
									}
								}
								JOINT LThumb
								{
									OFFSET 0.000000 0.000000 0.000000
									CHANNELS 3 Zrotation Yrotation Xrotation
									End Site
									{
										OFFSET 0.000000 0.000000 0.000000
									}
								}
							}
						}
					}
				}
				JOINT RightShoulder
				{
					OFFSET 0.000000 0.000000 0.000000
					CHANNELS 3 Zrotation Yrotation Xrotation
					JOINT RightArm
					{
						OFFSET -3.136600 1.374050 -0.404650
						CHANNELS 3 Zrotation Yrotation Xrotation
						JOINT RightForeArm
						{
							OFFSET -5.241900 -0.000000 -0.000000
							CHANNELS 3 Zrotation Yrotation Xrotation
							JOINT RightHand
							{
								OFFSET -3.444170 -0.000000 -0.000000
								CHANNELS 3 Zrotation Yrotation Xrotation
								JOINT RightFingerBase
								{
									OFFSET 0.000000 0.000000 0.000000
									CHANNELS 3 Zrotation Yrotation Xrotation
									JOINT RightHandIndex1
									{
										OFFSET -0.622530 -0.000000 -0.000000
										CHANNELS 3 Zrotation Yrotation Xrotation
										End Site
										{
											OFFSET 0.000000 0.000000 0.000000
										}
									}
								}
								JOINT RThumb
								{
									OFFSET 0.000000 0.000000 0.000000
									CHANNELS 3 Zrotation Yrotation Xrotation
									End Site
									{
										OFFSET 0.000000 0.000000 0.000000
									}
								}
							}
						}
					}
				}
			}
		}
	}
}
MOTION
Frames: 9
Frame Time: 0.008333
7.736055 17.552508 -22.651853 -105.078407 82.969068 -102.167072 -4.874587 -2.480512 0.176354 -7.203714 -3.429986 -8.625205 1.538792 10.583079 28.345398 1.243292 -8.640000 -9.870233 0.326000 3.669700 10.149100 4.178528 2.735826 -0.656587 24.487835 -2.989042 -9.080546 -1.334290 -10.101568 26.266624 -0.167999 -2.716522 -12.216065 -0.153500 -2.524800 6.958300 5.122749 1.351361 1.431192 1.901017 1.967939 -4.044009 2.559489 1.062485 -0.461318 -7.308947 -1.781899 -17.862035 3.602051 -0.985371 9.140479 2.545500 -0.774600 8.632800 -0.050515 -1.527698 0.442921 -89.486091 5.312576 24.713336 12.223019 -22.003294 -2.470305 0.090074 0.500067 4.477601 15.172993 19.939892 5.134900 -7.125000 0.000000 0.000000 -12.993300 49.595000 -1.494600 2.027988 1.480572 -0.231918 81.278642 -1.521947 14.064376 -11.809502 19.290928 -2.331680 0.292967 -0.337563 -4.726416 -18.690378 14.469547 -5.022600 7.125000 0.000000 0.000000 5.816800 -14.400600 4.209600 
7.743742 17.570310 -22.644975 -103.987172 82.805112 -101.168016 -4.866270 -2.458585 0.208039 -6.997042 -3.200462 -8.465593 1.492414 10.500205 28.067660 1.237893 -8.607463 -9.774549 0.307000 3.562000 9.847500 4.179131 2.723319 -0.686207 24.658882 -1.930575 -8.554452 -1.372125 -10.186860 26.519783 -0.318716 -2.051929 -12.786834 -0.645200 -5.138500 14.303900 5.249552 1.429051 1.491844 1.922472 2.076309 -4.015904 2.563172 1.120717 -0.416615 -7.259151 -1.845791 -17.913562 3.513076 -1.081591 9.124583 2.481200 -0.824800 8.640500 -0.039950 -1.527921 0.445823 -89.489102 5.198943 24.845569 12.203615 -21.976308 -2.462221 0.090376 0.497630 4.522888 15.110799 19.769345 5.070500 -7.125000 0.000000 0.000000 -12.991400 49.418500 -1.437200 2.039551 1.477848 -0.229689 81.231875 -1.513999 14.261342 -11.810002 19.292023 -2.330743 0.292978 -0.334119 -5.244274 -18.523132 14.527939 -4.993000 7.125000 0.000000 0.000000 5.934100 -14.358200 4.300800 
7.742225 17.536123 -22.648515 -104.058342 82.903144 -101.205860 -4.875235 -2.460584 0.222063 -7.118653 -3.053765 -8.416306 1.424413 10.384222 27.696352 1.231088 -8.575009 -9.699069 0.348500 3.793000 10.495000 4.170368 2.742876 -0.695433 24.620202 -2.597332 -9.129295 -1.430862 -10.299936 26.881807 -0.192633 -2.719890 -12.675906 -0.200200 -2.881400 7.948700 5.100039 1.422304 1.437626 1.934001 2.059763 -4.012769 2.670045 1.113174 -0.386484 -7.205738 -1.822801 -17.922454 3.409977 -1.061265 9.152659 2.415700 -0.823000 8.650000 -0.027748 -1.531476 0.445636 -89.625357 5.158811 24.683445 12.212200 -21.994418 -2.463684 0.086322 0.494492 4.588222 14.767862 19.497185 4.885800 -7.125000 0.000000 0.000000 -13.215400 49.100800 -1.358000 2.050778 1.470546 -0.231631 81.118701 -1.511763 14.302644 -11.811651 19.297647 -2.330860 0.278292 -0.328824 -5.273991 -17.984270 14.521273 -4.832200 7.125000 0.000000 0.000000 6.308700 -14.426900 4.566200 
7.749204 17.569602 -22.649223 -104.889804 82.982645 -101.993856 -4.890528 -2.462141 0.237023 -7.207928 -2.995896 -8.328443 1.383845 10.304181 27.435996 1.281438 -8.952563 -9.968470 0.638700 5.113100 14.231400 4.174508 2.729867 -0.699779 24.373285 -2.110817 -8.911752 -1.468846 -10.369079 27.093173 -0.363389 -1.825667 -12.871431 -0.559000 -4.789100 13.308100 4.948132 1.361762 1.379236 1.946929 1.973850 -4.019702 2.771135 1.069236 -0.380323 -7.187402 -1.761116 -17.918686 3.404579 -0.981044 9.200675 2.412700 -0.786000 8.665300 -0.024001 -1.532561 0.444429 -89.705285 5.215829 24.817247 12.303866 -22.130393 -2.494961 0.081831 0.497503 4.350242 14.676222 19.587664 4.876600 -7.125000 0.000000 0.000000 -13.331200 49.174800 -1.394900 2.055066 1.467547 -0.234234 81.071388 -1.511325 14.532285 -11.824204 19.310540 -2.332952 0.280957 -0.323762 -5.272573 -18.018358 14.346284 -4.785600 7.125000 0.000000 0.000000 6.278200 -14.610000 4.519300 
7.753452 17.576076 -22.651044 -105.890436 83.119179 -102.988555 -4.907655 -2.465744 0.244255 -7.358154 -3.051421 -8.202676 1.360244 10.260200 27.278628 1.377354 -9.384655 -10.752393 0.888500 6.008400 16.808900 4.175413 2.733930 -0.694376 24.206793 -2.541320 -9.092781 -1.496488 -10.421093 27.250641 -0.367461 -1.817013 -12.913558 -0.453500 -4.320400 11.979800 4.755645 1.344564 1.370324 1.934178 1.947367 -4.019566 2.831615 1.053255 -0.386567 -7.165411 -1.753520 -17.883735 3.370561 -0.978045 9.190141 2.388400 -0.786300 8.650800 -0.023590 -1.535175 0.446146 -89.723045 5.253227 25.173188 12.415531 -22.292854 -2.533903 0.080853 0.502249 4.102300 14.831752 19.795092 4.980400 -7.125000 0.000000 0.000000 -13.258200 49.399100 -1.461200 2.053718 1.462936 -0.235097 81.090922 -1.538790 14.873281 -11.857543 19.346692 -2.341462 0.303449 -0.320820 -5.646063 -18.634470 14.184499 -4.910800 7.125000 0.000000 0.000000 5.840800 -14.715400 4.187700 
7.758004 17.568692 -22.656101 -106.865874 83.418439 -103.939156 -4.920682 -2.479814 0.241519 -7.685146 -3.051243 -8.137245 1.340452 10.237519 27.199026 1.381206 -9.356123 -10.880797 0.623900 5.054600 14.064200 4.182427 2.731212 -0.687763 23.854020 -2.687443 -9.198463 -1.510178 -10.450095 27.337456 -0.350414 -1.916574 -12.922186 -0.415600 -4.138100 11.465500 4.457214 1.366400 1.306962 1.883984 1.966817 -4.014129 2.873716 1.058008 -0.343220 -7.336965 -1.867010 -17.898370 3.422425 -1.086117 9.201727 2.438500 -0.842500 8.670000 -0.035009 -1.531273 0.446237 -89.740947 5.232096 25.433184 12.489136 -22.390890 -2.555735 0.080405 0.498869 3.995275 14.789602 19.559283 4.908100 -7.125000 0.000000 0.000000 -13.214900 49.162200 -1.378200 2.036761 1.461063 -0.233580 81.139046 -1.523336 14.897042 -11.851663 19.336565 -2.339579 0.319272 -0.324305 -5.767577 -19.143607 14.194537 -5.062100 7.125000 0.000000 0.000000 5.485000 -14.647000 3.938200 
7.759824 17.575873 -22.676837 -111.125804 84.282063 -107.951638 -4.953911 -2.554488 0.190794 -8.767426 -3.164884 -8.310245 1.319168 10.221863 27.195344 1.207655 -8.895596 -9.376958 0.378500 3.951500 10.940100 4.202747 2.702874 -0.644732 22.550828 -2.783254 -9.506845 -1.525316 -10.461596 27.382782 -0.500790 -1.000762 -12.735982 -0.687300 -5.300100 14.766600 3.664026 1.339589 1.050886 1.730477 1.908627 -4.040843 2.890702 1.011477 -0.269293 -7.673081 -2.009492 -17.994905 3.655207 -1.185775 9.281187 2.614400 -0.887500 8.746700 -0.072798 -1.522841 0.438787 -89.799846 5.144418 25.584588 12.507891 -22.409680 -2.559397 0.081765 0.496316 3.814617 14.853928 19.365388 4.881800 -7.125000 0.000000 0.000000 -13.088800 48.981500 -1.305600 1.985488 1.461515 -0.235194 81.154636 -1.506775 15.095234 -11.880845 19.385372 -2.350532 0.329224 -0.321267 -6.003920 -19.403865 14.094763 -5.102800 7.125000 0.000000 0.000000 5.298300 -14.725200 3.794100 
7.755778 17.539663 -22.688367 -113.764343 84.254146 -110.520553 -4.957567 -2.584506 0.169560 -8.895589 -3.155408 -8.463242 1.327548 10.226567 27.237540 1.205485 -8.920811 -9.339130 0.305900 3.556000 9.830900 4.190072 2.719037 -0.621727 22.519256 -4.411024 -10.480275 -1.530682 -10.458281 27.387301 -0.350249 -1.717643 -12.316395 -0.082600 -1.854300 5.103200 3.722983 1.247055 1.000205 1.703803 1.786130 -4.053168 2.760940 0.943992 -0.262988 -7.639822 -1.968858 -18.028521 3.702375 -1.138148 9.326134 2.641200 -0.858900 8.773200 -0.080594 -1.523697 0.436596 -89.830559 5.047361 25.530431 12.528565 -22.431981 -2.566595 0.079263 0.499333 3.824317 14.785234 19.614791 4.920100 -7.125000 0.000000 0.000000 -13.239300 49.216400 -1.398700 1.971259 1.458779 -0.239460 81.215646 -1.537899 15.509945 -11.969556 19.512262 -2.379755 0.334542 -0.311079 -6.464924 -19.441415 13.904866 -5.046200 7.125000 0.000000 0.000000 5.263100 -14.928000 3.745800 
7.760937 17.554026 -22.682299 -110.772488 84.034349 -107.602719 -4.939699 -2.550307 0.196421 -8.525708 -2.958359 -8.441895 1.318691 10.209934 27.168048 1.206774 -8.823916 -9.363833 0.266600 3.321400 9.174800 4.195436 2.716322 -0.645586 22.925001 -3.268503 -9.716368 -1.534478 -10.483196 27.451657 -0.413329 -1.554144 -12.898286 -0.304500 -3.547600 9.807400 3.966294 1.282549 1.064225 1.756612 1.836889 -4.050156 2.773651 0.978066 -0.290278 -7.510074 -1.885070 -18.010633 3.604961 -1.057204 9.405083 2.574000 -0.825400 8.799300 -0.061780 -1.524624 0.435585 -89.912884 5.020912 25.214362 12.547919 -22.458661 -2.572572 0.070090 0.499699 4.323133 14.141786 19.776497 4.740100 -7.125000 0.000000 0.000000 -13.893800 49.282500 -1.493200 1.986241 1.457565 -0.245640 81.292999 -1.647059 15.832184 -12.062092 19.640368 -2.411444 0.330227 -0.310821 -6.621613 -19.350421 14.065524 -5.074900 7.125000 0.000000 0.000000 5.334500 -14.769200 3.815200 
